<mxfile host="Electron" agent="Mozilla/5.0 (Windows NT 10.0; Win64; x64) AppleWebKit/537.36 (KHTML, like Gecko) draw.io/25.0.2 Chrome/128.0.6613.186 Electron/32.2.5 Safari/537.36" version="25.0.2">
  <diagram name="ページ1" id="oEd4JzLgWI3vDSz6r1-1">
    <mxGraphModel dx="2198" dy="884" grid="1" gridSize="10" guides="1" tooltips="1" connect="1" arrows="1" fold="1" page="1" pageScale="1" pageWidth="827" pageHeight="1169" math="0" shadow="0">
      <root>
        <mxCell id="0" />
        <mxCell id="1" parent="0" visible="0" />
        <mxCell id="jx_j_8Kbwj3vOvDym7Gz-1" value="凡例" parent="0" visible="0" />
        <mxCell id="jx_j_8Kbwj3vOvDym7Gz-2" value="データ" style="rounded=1;whiteSpace=wrap;html=1;" vertex="1" parent="jx_j_8Kbwj3vOvDym7Gz-1">
          <mxGeometry x="-770" y="20" width="120" height="60" as="geometry" />
        </mxCell>
        <mxCell id="jx_j_8Kbwj3vOvDym7Gz-3" value="クラス" style="rounded=0;whiteSpace=wrap;html=1;" vertex="1" parent="jx_j_8Kbwj3vOvDym7Gz-1">
          <mxGeometry x="-770" y="110" width="120" height="60" as="geometry" />
        </mxCell>
        <mxCell id="jx_j_8Kbwj3vOvDym7Gz-4" value="メソッド" style="shape=parallelogram;perimeter=parallelogramPerimeter;whiteSpace=wrap;html=1;fixedSize=1;" vertex="1" parent="jx_j_8Kbwj3vOvDym7Gz-1">
          <mxGeometry x="-770" y="200" width="120" height="60" as="geometry" />
        </mxCell>
        <mxCell id="jx_j_8Kbwj3vOvDym7Gz-6" value="" style="endArrow=classic;html=1;rounded=0;" edge="1" parent="jx_j_8Kbwj3vOvDym7Gz-1">
          <mxGeometry width="50" height="50" relative="1" as="geometry">
            <mxPoint x="-590" y="220" as="sourcePoint" />
            <mxPoint x="-510" y="220" as="targetPoint" />
          </mxGeometry>
        </mxCell>
        <mxCell id="jx_j_8Kbwj3vOvDym7Gz-7" value="" style="endArrow=classic;html=1;rounded=0;dashed=1;dashPattern=1 1;fillColor=#e51400;strokeColor=#B20000;" edge="1" parent="jx_j_8Kbwj3vOvDym7Gz-1">
          <mxGeometry width="50" height="50" relative="1" as="geometry">
            <mxPoint x="-610" y="100" as="sourcePoint" />
            <mxPoint x="-480" y="100" as="targetPoint" />
          </mxGeometry>
        </mxCell>
        <mxCell id="jx_j_8Kbwj3vOvDym7Gz-10" value="非同期呼び出す" style="edgeLabel;html=1;align=center;verticalAlign=middle;resizable=0;points=[];" vertex="1" connectable="0" parent="jx_j_8Kbwj3vOvDym7Gz-7">
          <mxGeometry x="0.6703" y="2" relative="1" as="geometry">
            <mxPoint x="-43" as="offset" />
          </mxGeometry>
        </mxCell>
        <mxCell id="jx_j_8Kbwj3vOvDym7Gz-8" value="" style="endArrow=classic;html=1;rounded=0;fillColor=#0050ef;strokeColor=#001DBC;" edge="1" parent="jx_j_8Kbwj3vOvDym7Gz-1">
          <mxGeometry width="50" height="50" relative="1" as="geometry">
            <mxPoint x="-610" y="75" as="sourcePoint" />
            <mxPoint x="-480" y="75" as="targetPoint" />
          </mxGeometry>
        </mxCell>
        <mxCell id="jx_j_8Kbwj3vOvDym7Gz-9" value="同期呼び出す" style="edgeLabel;html=1;align=center;verticalAlign=middle;resizable=0;points=[];" vertex="1" connectable="0" parent="jx_j_8Kbwj3vOvDym7Gz-8">
          <mxGeometry x="0.2" y="-1" relative="1" as="geometry">
            <mxPoint x="-11" y="-2" as="offset" />
          </mxGeometry>
        </mxCell>
        <mxCell id="jx_j_8Kbwj3vOvDym7Gz-16" value="" style="whiteSpace=wrap;html=1;aspect=fixed;fillColor=none;dashed=1;strokeWidth=4;" vertex="1" parent="jx_j_8Kbwj3vOvDym7Gz-1">
          <mxGeometry x="-760" y="290" width="100" height="100" as="geometry" />
        </mxCell>
        <mxCell id="jx_j_8Kbwj3vOvDym7Gz-17" value="スレッド" style="text;html=1;align=center;verticalAlign=middle;whiteSpace=wrap;rounded=0;" vertex="1" parent="jx_j_8Kbwj3vOvDym7Gz-1">
          <mxGeometry x="-740" y="325" width="60" height="30" as="geometry" />
        </mxCell>
        <mxCell id="jx_j_8Kbwj3vOvDym7Gz-31" value="例外" style="shape=callout;whiteSpace=wrap;html=1;perimeter=calloutPerimeter;" vertex="1" parent="jx_j_8Kbwj3vOvDym7Gz-1">
          <mxGeometry x="-800" y="430" width="290" height="80" as="geometry" />
        </mxCell>
        <mxCell id="jx_j_8Kbwj3vOvDym7Gz-13" value="Main" parent="0" />
        <mxCell id="jx_j_8Kbwj3vOvDym7Gz-14" value="RecordAccumulator" style="rounded=0;whiteSpace=wrap;html=1;horizontal=1;verticalAlign=top;align=left;" vertex="1" parent="jx_j_8Kbwj3vOvDym7Gz-13">
          <mxGeometry x="140" y="640" width="630" height="310" as="geometry" />
        </mxCell>
        <mxCell id="jx_j_8Kbwj3vOvDym7Gz-15" value="ConcurrentMap&amp;lt;TopicPartition, Deque&amp;lt;ProducerBatch&amp;gt;&amp;gt; batches" style="rounded=1;whiteSpace=wrap;html=1;" vertex="1" parent="jx_j_8Kbwj3vOvDym7Gz-13">
          <mxGeometry x="520" y="700" width="230" height="60" as="geometry" />
        </mxCell>
        <mxCell id="jx_j_8Kbwj3vOvDym7Gz-20" value="KafkaProducer" style="rounded=0;whiteSpace=wrap;html=1;horizontal=1;verticalAlign=top;align=left;" vertex="1" parent="jx_j_8Kbwj3vOvDym7Gz-13">
          <mxGeometry x="-190" y="170" width="540" height="310" as="geometry" />
        </mxCell>
        <mxCell id="jx_j_8Kbwj3vOvDym7Gz-21" value="doSend" style="shape=parallelogram;perimeter=parallelogramPerimeter;whiteSpace=wrap;html=1;fixedSize=1;" vertex="1" parent="jx_j_8Kbwj3vOvDym7Gz-13">
          <mxGeometry y="300" width="120" height="60" as="geometry" />
        </mxCell>
        <mxCell id="jx_j_8Kbwj3vOvDym7Gz-22" value="append" style="shape=parallelogram;perimeter=parallelogramPerimeter;whiteSpace=wrap;html=1;fixedSize=1;" vertex="1" parent="jx_j_8Kbwj3vOvDym7Gz-13">
          <mxGeometry x="250" y="700" width="120" height="60" as="geometry" />
        </mxCell>
        <mxCell id="jx_j_8Kbwj3vOvDym7Gz-23" value="" style="endArrow=classic;html=1;rounded=0;fillColor=#0050ef;strokeColor=#001DBC;exitX=1;exitY=0.5;exitDx=0;exitDy=0;entryX=0;entryY=0.5;entryDx=0;entryDy=0;" edge="1" parent="jx_j_8Kbwj3vOvDym7Gz-13" source="jx_j_8Kbwj3vOvDym7Gz-22" target="jx_j_8Kbwj3vOvDym7Gz-15">
          <mxGeometry width="50" height="50" relative="1" as="geometry">
            <mxPoint x="370" y="739.5" as="sourcePoint" />
            <mxPoint x="500" y="739.5" as="targetPoint" />
          </mxGeometry>
        </mxCell>
        <mxCell id="jx_j_8Kbwj3vOvDym7Gz-27" value="IncompleteBatches incomplete" style="rounded=1;whiteSpace=wrap;html=1;" vertex="1" parent="jx_j_8Kbwj3vOvDym7Gz-13">
          <mxGeometry x="410" y="830" width="230" height="60" as="geometry" />
        </mxCell>
        <mxCell id="jx_j_8Kbwj3vOvDym7Gz-38" value="Sender" style="rounded=0;whiteSpace=wrap;html=1;horizontal=1;verticalAlign=top;align=left;" vertex="1" parent="jx_j_8Kbwj3vOvDym7Gz-13">
          <mxGeometry x="600" y="120" width="630" height="310" as="geometry" />
        </mxCell>
        <mxCell id="jx_j_8Kbwj3vOvDym7Gz-39" value="run -&amp;gt; runOnce()" style="shape=parallelogram;perimeter=parallelogramPerimeter;whiteSpace=wrap;html=1;fixedSize=1;" vertex="1" parent="jx_j_8Kbwj3vOvDym7Gz-13">
          <mxGeometry x="710" y="180" width="160" height="80" as="geometry" />
        </mxCell>
        <mxCell id="jx_j_8Kbwj3vOvDym7Gz-40" value="" style="endArrow=classic;html=1;rounded=0;exitX=0.75;exitY=0;exitDx=0;exitDy=0;" edge="1" parent="jx_j_8Kbwj3vOvDym7Gz-13" source="jx_j_8Kbwj3vOvDym7Gz-15" target="jx_j_8Kbwj3vOvDym7Gz-39">
          <mxGeometry width="50" height="50" relative="1" as="geometry">
            <mxPoint x="650" y="480" as="sourcePoint" />
            <mxPoint x="700" y="430" as="targetPoint" />
          </mxGeometry>
        </mxCell>
        <mxCell id="jx_j_8Kbwj3vOvDym7Gz-41" value="&lt;div style=&quot;background-color:#1e1f22;color:#bcbec4&quot;&gt;&lt;pre style=&quot;font-family:&#39;JetBrains Mono&#39;,monospace;font-size:9.8pt;&quot;&gt;&lt;span style=&quot;color:#cf8e6d;&quot;&gt;this&lt;/span&gt;.&lt;span style=&quot;color:#c77dbb;&quot;&gt;accumulator&lt;/span&gt;.drain&lt;/pre&gt;&lt;/div&gt;" style="edgeLabel;html=1;align=center;verticalAlign=middle;resizable=0;points=[];" vertex="1" connectable="0" parent="jx_j_8Kbwj3vOvDym7Gz-40">
          <mxGeometry x="-0.0727" relative="1" as="geometry">
            <mxPoint as="offset" />
          </mxGeometry>
        </mxCell>
        <mxCell id="jx_j_8Kbwj3vOvDym7Gz-42" value="Task Kill 条件&lt;div&gt;&lt;br&gt;&lt;/div&gt;&lt;div&gt;Sender停止条件&lt;/div&gt;" style="rounded=0;whiteSpace=wrap;html=1;" vertex="1" parent="jx_j_8Kbwj3vOvDym7Gz-13">
          <mxGeometry x="210" y="1010" width="260" height="80" as="geometry" />
        </mxCell>
      </root>
    </mxGraphModel>
  </diagram>
</mxfile>
